<svg xmlns="http://www.w3.org/2000/svg" xml:space="preserve" fill-rule="evenodd" clip-rule="evenodd" image-rendering="optimizeQuality" shape-rendering="geometricPrecision" text-rendering="geometricPrecision" version="1.0" viewBox="0 0 192 119"><defs><style>.str0{stroke:#000;stroke-width:3;stroke-miterlimit:22.9256}.fil0{fill:#fefefe}</style></defs><g id="Слой_x0020_1"><path d="M119 15c7 3 20 4 20 38s-11 35-20 38v27h71c0-60 9-114-71-116v14z" class="fil0 str0"/><path fill="#a9abae" d="M73 15c-7 3-20 4-20 38s11 35 20 38v27H2C2 58-7 4 73 2v14z" class="str0"/><path stroke="#373435" stroke-miterlimit="22.9256" stroke-width="3" d="M96 16c10 0 19 8 19 19v39c0 10-8 19-19 19-10 0-19-8-19-19V35c0-10 8-19 19-19z" class="fil0"/></g></svg>