<svg xmlns="http://www.w3.org/2000/svg" xml:space="preserve" fill-rule="evenodd" clip-rule="evenodd" image-rendering="optimizeQuality" shape-rendering="geometricPrecision" text-rendering="geometricPrecision" version="1.0" viewBox="0 0 192 207"><defs><style>.str0{stroke:#000;stroke-width:3;stroke-miterlimit:22.9256}.fil0{fill:#fefefe}.fil1{fill:#000}</style></defs><g id="Слой_x0020_1"><path d="M119 59c7 3 20 4 20 38s-11 35-20 38v27h71c0-60 9-114-71-116v14z" class="fil0 str0"/><path d="M75 36 96 0l21 36h-17v16h-8V36z" class="fil1"/><path d="M73 59c-7 3-20 4-20 38s11 35 20 38v27H2C2 102-7 48 73 46v14z" class="fil0 str0"/><path fill="#a9abae" stroke="#373435" stroke-miterlimit="22.9256" stroke-width="3" d="M96 59c10 0 19 8 19 19v39c0 10-8 19-19 19-10 0-19-8-19-19V78c0-10 8-19 19-19z"/><path d="m117 172-21 35-21-35h17v-17h8v17z" class="fil1"/></g></svg>